21HTranslator GiD - IGES                                                S      1
1H,,1H;,3HGiD,                                                          G      1
56HE:/work2011/REVOCAP/data/CADFitting/Sphere100/Sphere.igs,3HGiD,      G      2
5H9.0.2,32,38,6,308,15,,1.,2,2HMM,10,10.,13H110118.181201,              G      3
1.00000000E-008,100.,,                                                  G      4
65HCIMNE - International Center for Numerical Methods in Engineering,11,G      5
0,;                                                                     G      6
     314       1       0       0       0       0       0       000000200D      1
     314       0       1       1       0                   COLOR       1D      2
     406       2       0       0       1       0       0       000000300D      3
     406       0      -1       1       3                LEVELDEF       1D      4
     502       3       0       0       0       0       0       000010000D      5
     502       0       0       1       1                VERTLIST       0D      6
     126       4       0       0       1       0       0       000010000D      7
     126       0       0       3       0                NURBLINE       1D      8
     126       7       0       0       1       0       0       000010000D      9
     126       0       0       3       0                NURBLINE       2D     10
     126      10       0       0       1       0       0       000010000D     11
     126       0       0       4       0                NURBLINE       3D     12
     126      14       0       0       1       0       0       000010000D     13
     126       0       0       3       0                NURBLINE       4D     14
     504      17       0       0       0       0       0       000010001D     15
     504       0       0       1       1                EDGELIST       0D     16
     128      18       0       0       1       0       0       000010000D     17
     128       0       0       9       0                NURBSURF       1D     18
     128      27       0       0       1       0       0       000010000D     19
     128       0       0       9       0                NURBSURF       2D     20
     128      36       0       0       1       0       0       000010000D     21
     128       0       0       9       0                NURBSURF       3D     22
     128      45       0       0       1       0       0       000010000D     23
     128       0       0       9       0                NURBSURF       4D     24
     508      54       0       0       0       0       0       000010000D     25
     508       0       0       1       1                    LOOP       1D     26
     508      55       0       0       0       0       0       000010000D     27
     508       0       0       1       1                    LOOP       2D     28
     508      56       0       0       0       0       0       000010000D     29
     508       0       0       1       1                    LOOP       3D     30
     508      57       0       0       0       0       0       000010000D     31
     508       0       0       1       1                    LOOP       4D     32
     510      58       0       0       1       0       0       000010000D     33
     510       0       0       1       1                    FACE       1D     34
     510      59       0       0       1       0       0       000010000D     35
     510       0       0       1       1                    FACE       2D     36
     510      60       0       0       1       0       0       000010000D     37
     510       0       0       1       1                    FACE       3D     38
     510      61       0       0       1       0       0       000010000D     39
     510       0       0       1       1                    FACE       4D     40
     514      62       0       0       1       0       0       000010000D     41
     514       0       0       1       1                   SHELL       1D     42
     186      63       0       0       1       0       0       000000000D     43
     186       0       0       1       0                   SOLID       1D     44
314,0.,100.,0.,12HRGB(0,255,0);                                        1P      1
406,2,1,6HLayer0;                                                      3P      2
502,2,0.,-100.,0.,0.,100.,0.;                                          5P      3
126,4,2,1,0,0,0,0.,0.,0.,0.5,0.5,1.,1.,1.,1.,0.707106781,1.,           7P      4
0.707106781,1.,0.,-100.,0.,100.,-100.,0.,100.,-6.12323400E-015,        7P      5
0.,100.,100.,0.,1.22464680E-014,100.,0.,0.,1.,0.,0.,1.;                7P      6
126,4,2,1,0,0,0,0.,0.,0.,0.5,0.5,1.,1.,1.,1.,0.707106781,1.,           9P      7
0.707106781,1.,0.,-100.,0.,0.,-100.,-100.,0.,-6.12323400E-015,         9P      8
-100.,0.,100.,-100.,0.,100.,-1.22464680E-014,0.,1.,1.,0.,0.;           9P      9
126,4,2,1,0,0,0,0.,0.,0.,0.5,0.5,1.,1.,1.,1.,0.707106781,1.,          11P     10
0.707106781,1.,0.,-100.,0.,-100.,-100.,0.,-100.,                      11P     11
-6.12323400E-015,0.,-100.,100.,0.,-1.22464680E-014,100.,0.,0.,        11P     12
1.,0.,0.,1.;                                                          11P     13
126,4,2,1,0,0,0,0.,0.,0.,0.5,0.5,1.,1.,1.,1.,0.707106781,1.,          13P     14
0.707106781,1.,0.,-100.,0.,0.,-100.,100.,0.,-6.12323400E-015,         13P     15
100.,0.,100.,100.,0.,100.,1.22464680E-014,0.,1.,-1.,0.,0.;            13P     16
504,4,7,5,1,5,2,9,5,1,5,2,11,5,1,5,2,13,5,1,5,2;                      15P     17
128,4,2,2,2,0,0,0,0,0,0.,0.,0.,0.5,0.5,1.,1.,1.,0.,0.,0.,1.,1.,       17P     18
1.,1.,0.707106781,1.,0.707106781,1.,0.707106781,0.5,0.707106781,      17P     19
0.5,0.707106781,1.,0.707106781,1.,0.707106781,1.,0.,-100.,0.,         17P     20
100.,-100.,0.,100.,-6.12323400E-015,0.,100.,100.,0.,                  17P     21
1.22464680E-014,100.,0.,0.,-100.,0.,100.,-100.,-100.,100.,            17P     22
-6.12323400E-015,-100.,100.,100.,-100.,1.22464680E-014,100.,          17P     23
-1.22464680E-014,0.,-100.,0.,6.12323400E-015,-100.,-100.,             17P     24
6.12323400E-015,-6.12323400E-015,-100.,6.12323400E-015,100.,          17P     25
-100.,7.49879891E-031,100.,-1.22464680E-014,0.,1.,0.,1.;              17P     26
128,4,2,2,2,0,0,0,0,0,0.,0.,0.,0.5,0.5,1.,1.,1.,0.,0.,0.,1.,1.,       19P     27
1.,1.,0.707106781,1.,0.707106781,1.,0.707106781,0.5,0.707106781,      19P     28
0.5,0.707106781,1.,0.707106781,1.,0.707106781,1.,0.,-100.,0.,0.,      19P     29
-100.,-100.,0.,-6.12323400E-015,-100.,0.,100.,-100.,0.,100.,          19P     30
-1.22464680E-014,0.,-100.,0.,-100.,-100.,-100.,-100.,                 19P     31
-6.12323400E-015,-100.,-100.,100.,-100.,-1.22464680E-014,100.,        19P     32
-1.22464680E-014,0.,-100.,0.,-100.,-100.,-6.12323400E-015,-100.,      19P     33
-6.12323400E-015,-6.12323400E-015,-100.,100.,-6.12323400E-015,        19P     34
-1.22464680E-014,100.,-7.49879891E-031,0.,1.,0.,1.;                   19P     35
128,4,2,2,2,0,0,0,0,0,0.,0.,0.,0.5,0.5,1.,1.,1.,0.,0.,0.,1.,1.,       21P     36
1.,1.,0.707106781,1.,0.707106781,1.,0.707106781,0.5,0.707106781,      21P     37
0.5,0.707106781,1.,0.707106781,1.,0.707106781,1.,0.,-100.,0.,         21P     38
-100.,-100.,0.,-100.,-6.12323400E-015,0.,-100.,100.,0.,               21P     39
-1.22464680E-014,100.,0.,0.,-100.,0.,-100.,-100.,100.,-100.,          21P     40
-6.12323400E-015,100.,-100.,100.,100.,-1.22464680E-014,100.,          21P     41
1.22464680E-014,0.,-100.,0.,-6.12323400E-015,-100.,100.,              21P     42
-6.12323400E-015,-6.12323400E-015,100.,-6.12323400E-015,100.,         21P     43
100.,-7.49879891E-031,100.,1.22464680E-014,0.,1.,0.,1.;               21P     44
128,4,2,2,2,0,0,0,0,0,0.,0.,0.,0.5,0.5,1.,1.,1.,0.,0.,0.,1.,1.,       23P     45
1.,1.,0.707106781,1.,0.707106781,1.,0.707106781,0.5,0.707106781,      23P     46
0.5,0.707106781,1.,0.707106781,1.,0.707106781,1.,0.,-100.,0.,0.,      23P     47
-100.,100.,0.,-6.12323400E-015,100.,0.,100.,100.,0.,100.,             23P     48
1.22464680E-014,0.,-100.,0.,100.,-100.,100.,100.,                     23P     49
-6.12323400E-015,100.,100.,100.,100.,1.22464680E-014,100.,            23P     50
1.22464680E-014,0.,-100.,0.,100.,-100.,6.12323400E-015,100.,          23P     51
-6.12323400E-015,6.12323400E-015,100.,100.,6.12323400E-015,           23P     52
1.22464680E-014,100.,7.49879891E-031,0.,1.,0.,1.;                     23P     53
508,2,0,15,1,1,0,0,15,2,0,0;                                          25P     54
508,2,0,15,2,1,0,0,15,3,0,0;                                          27P     55
508,2,0,15,3,1,0,0,15,4,0,0;                                          29P     56
508,2,0,15,4,1,0,0,15,1,0,0;                                          31P     57
510,17,1,1,25;                                                        33P     58
510,19,1,1,27;                                                        35P     59
510,21,1,1,29;                                                        37P     60
510,23,1,1,31;                                                        39P     61
514,4,33,1,39,1,35,1,37,1;                                            41P     62
186,41,1,0;                                                           43P     63
S      1G      6D     44P     63                                        T      1
